<svg id="Layer_1" data-name="Layer 1" xmlns="http://www.w3.org/2000/svg" viewBox="0 0 1891 440.8"><defs><style>.cls-1{fill:#e6007a;}.cls-2{fill:none;}</style></defs><path d="M618.47,175.21c0,33.21-22.82,52.73-61.6,52.73H521.63v60.84h-35V121.47h70.22C595.65,121.47,618.47,141,618.47,175.21ZM583,175c0-17-9.63-25.6-31.43-25.6H521.63v51.46h29.92C573.35,200.82,583,192,583,175Z" transform="translate(-14 42.9)"/><path d="M757.13,225.41c0,41.31-24.08,65.9-64.89,65.9s-64.89-24.59-64.89-65.9,24.08-65.91,64.89-65.91S757.13,184.09,757.13,225.41Zm-95,0c0,26.87,10.64,40,30.16,40s30.17-13.18,30.17-40-10.65-40.06-30.17-40.06S662.08,198.54,662.08,225.41Z" transform="translate(-14 42.9)"/><path d="M811.64,248.47c0,11.92,3,16.23,12.42,16.23a38.29,38.29,0,0,0,15-2.79L836,286c-5.58,3.3-15.21,5.32-23.57,5.32-24.59,0-35.49-11.4-35.49-37.77v-147h34.73Z" transform="translate(-14 42.9)"/><path d="M906.44,232.76l-23.07,24.58v31.44H848.64V106.52h34.73V220.08l55-58.05h39.29L930,211.72l50.7,77.06H941.42Z" transform="translate(-14 42.9)"/><path d="M1114.56,266.72l-2.54,21a36.61,36.61,0,0,1-16.47,3.55c-15.21,0-25.61-5.32-29.16-19-7.6,12.42-23.57,19-44.86,19-24.09,0-39.29-11.15-39.29-32.44,0-19.78,15.46-33.72,49.43-40.06l30.41-5.83V206.9c0-13.43-7.85-22.05-21.54-22.05-14.7,0-25.35,5.57-29.15,21.54l-27.63-11.66c5.32-21.54,24.33-35.23,55.26-35.23,35.23,0,57.54,15.21,57.54,46.64v52c0,6.6,2.79,9.64,9.38,9.64A31,31,0,0,0,1114.56,266.72Zm-52.48-19.26V234.28L1035,240.36c-11.15,2.54-17,6.59-17,15,0,8.11,5.32,12.42,14.45,12.42C1045.61,267.74,1062.08,260.89,1062.08,247.46Z" transform="translate(-14 42.9)"/><path class="cls-1" d="M1311.52,288.78h-31.43v-87.2l1.52-48.93h-.51l-46.39,136.13h-28.64l-46.14-136.13h-.5l1.77,48.93v87.2h-31.68V121.47h50.69l30.17,91.26L1221,250.5h.51l10.9-37.52,29.91-91.51h49.18Z" transform="translate(-14 42.9)"/><path class="cls-1" d="M1461.59,162V288.78h-30.92L1429.4,267c-8.36,16.73-24.08,24.33-44.36,24.33-25.6,0-44.61-12.93-44.61-45.37V162h34.72v75c0,20.53,8.37,26.86,22.06,26.86,16.48,0,29.66-10.39,29.66-34V162Z" transform="translate(-14 42.9)"/><path class="cls-1" d="M1478.83,267l20.28-20.79c7.1,15.21,20.79,19.77,38,19.77,14.95,0,23.32-4.56,23.32-11.4,0-5.83-6.85-9.38-25.35-13.18-39.55-7.86-52.73-20-52.73-41.07,0-20.53,19.52-40.81,57-40.81,29.15,0,44.86,8.62,56.53,26.87l-21.55,18.25c-7.35-13.18-17.49-19.77-34.48-19.77-14.19,0-22.81,5.57-22.81,12.16,0,6.85,6.34,11.16,27.63,15.47,37,7.35,50.7,18.5,50.7,39.54,0,22.82-20,39.29-57.8,39.29C1511.53,291.31,1490.49,284.21,1478.83,267Z" transform="translate(-14 42.9)"/><path class="cls-1" d="M1609.38,125.28c0-12.42,7.1-18.76,21.55-18.76s21.54,6.34,21.54,18.76-7.09,18.5-21.54,18.5S1609.38,137.7,1609.38,125.28Zm38.79,163.5h-34.73V162h34.73Z" transform="translate(-14 42.9)"/><path class="cls-1" d="M1791.39,196.76l-32.45,11.66c-3-15.21-11.15-23.07-24.59-23.07-19.77,0-30.92,13.69-30.92,40.31,0,27.12,11.91,39.8,30.67,39.8,15.21,0,23.83-8.12,26.36-22.56L1791.9,253c-5.33,22.56-25.1,38.27-57.29,38.27-42.08,0-65.91-24.33-65.91-65.9s24.08-65.91,64.64-65.91C1769.08,159.5,1785.31,176,1791.39,196.76Z" transform="translate(-14 42.9)"/><path class="cls-1" d="M1849.44,270.53c0,12.67-8.62,20.53-22.06,20.53-13.68,0-22.05-7.86-22.05-20.53S1813.7,250,1827.38,250C1840.82,250,1849.44,257.85,1849.44,270.53Z" transform="translate(-14 42.9)"/><rect class="cls-2" width="1891" height="440.8"/><circle class="cls-1" cx="241.22" cy="256.43" r="134.97"/><path d="M221.12,46.61C162.5,59.52,116.35,99.28,95.46,155.15c-3.19,8.27-5.66,11.89-16.69,23.07l-12.91,13.2v21.77c0,31.49,5.66,58.33,17.12,81.69,5.08,10.31,9.14,12.19,31.92,15.39,16.25,2.32,18,2.32,20,.29s1.74-3.2-3.78-11.32c-8.85-12.92-17-31.35-21.33-47.6-4.93-18.57-5.65-52.38-1.3-70.66,9.58-41.36,35.69-76.91,71.68-97.66a149.58,149.58,0,0,1,158,4.93C408,134.69,426.45,229.73,379,299.82c-5.37,7.69-5.66,8.7-3.49,10.74s3.78,2,20-.29c27.42-3.78,29.17-5.08,38.31-30.62,7.83-22.2,10.73-39.18,10.73-64.57,0-12.63-.58-23.22-1.59-24.82-.73-1.59-6.53-7.83-12.77-13.78-9.58-9-11.9-12.19-14.66-19.88a170.36,170.36,0,0,0-39.9-62.83C354,72,327.05,56.18,298.46,48.64,278.87,43.41,240,42.4,221.12,46.61Z" transform="translate(-14 42.9)"/></svg>